<?xml version="1.0" encoding="utf-8"?>
<!-- Generator: Adobe Illustrator 21.1.0, SVG Export Plug-In . SVG Version: 6.00 Build 0)  -->
<svg version="1.1" id="Layer_1" xmlns="http://www.w3.org/2000/svg" xmlns:xlink="http://www.w3.org/1999/xlink" x="0px" y="0px"
	 viewBox="0 0 128.5 120.2" style="enable-background:new 0 0 128.5 120.2;" xml:space="preserve">
<style type="text/css">
	.st0{fill-rule:evenodd;clip-rule:evenodd;fill:#D39A06;}
	.st1{fill:#FFFFFF;}
</style>
<circle class="st0" cx="64.2" cy="60.1" r="57.9"/>
<g>
	<path class="st1" d="M90.5,55.7l-6.7,0c-0.1-0.1-0.2-0.1-0.3-0.2l-15.7-7.6c0.2-0.5,0.3-1,0.3-1.6c0-1.9-1.3-3.6-3.1-4l0-2l3.9-5.3
		c0.2-0.3,0.3-0.8,0.1-1.1c-0.2-0.4-0.5-0.6-0.9-0.6l-8.2,0c-0.4,0-0.8,0.2-0.9,0.6c-0.2,0.4-0.1,0.8,0.1,1.1l3.9,5.3l0,2.7
		c0,0,0,0.1,0,0.1c0,0,0,0,0,0.1c0,0.6,0.5,1.1,1.1,1.1c1.1,0,2,0.9,2,2c0,1.1-0.9,2-2,2c-0.4,0-0.8-0.1-1.1-0.3l0,0
		c0,0-0.1-0.1-0.1-0.1c-0.1-0.1-0.1-0.2-0.2-0.2c-0.1-0.1-0.2-0.2-0.3-0.3c-0.3-0.5-0.9-0.7-1.5-0.4c-0.4,0.2-0.6,0.7-0.5,1.2
		L45,55.5c-0.1,0-0.2,0.1-0.3,0.2l-6.7,0c-0.6,0-1.1,0.5-1.1,1.1l0,3c0,0.6,0.5,1.1,1.1,1.1l1.2,0l0,21l-1.2,0
		c-0.6,0-1.1,0.5-1.1,1.1l0,3c0,0.6,0.5,1.1,1.1,1.1l52.5,0c0.6,0,1.1-0.5,1.1-1.1l0-3c0-0.6-0.5-1.1-1.1-1.1l-1.2,0l0-21l1.2,0
		c0.6,0,1.1-0.5,1.1-1.1l0-3C91.6,56.2,91.1,55.7,90.5,55.7z M61.9,35.5l4,0l-2,2.7L61.9,35.5z M89.4,84.7l-50.4,0l0-0.9l50.4,0
		L89.4,84.7z M41.4,60.8l2.5,0l0,20.9l-2.5,0L41.4,60.8z M82.2,81.7l-3,0l0-20.9l3,0L82.2,81.7z M46.3,60.8l3,0l0,20.9l-3,0
		L46.3,60.8z M76.7,81.7l-3,0l0-20.9l3,0L76.7,81.7z M71.2,81.7l-3,0l0-20.9l3,0L71.2,81.7z M65.8,81.7l-3,0l0-20.9l3,0L65.8,81.7z
		 M60.3,81.7l-3,0l0-20.9l3,0L60.3,81.7z M54.8,81.7l-3,0l0-20.9l3,0L54.8,81.7z M87.1,81.7l-2.5,0l0-20.9l2.5,0L87.1,81.7z
		 M89.4,58.7l-1.1,0l-48.2,0l-1.1,0l0-0.9l50.4,0L89.4,58.7z M61.6,49.9c0.7,0.4,1.4,0.7,2.3,0.7c1,0,1.8-0.3,2.5-0.9l12.5,6
		l-29.4,0L61.6,49.9z"/>
</g>
</svg>
