<?xml version="1.0" encoding="utf-8"?>
<!-- Generator: Adobe Illustrator 21.1.0, SVG Export Plug-In . SVG Version: 6.00 Build 0)  -->
<svg version="1.1" id="Layer_1" xmlns="http://www.w3.org/2000/svg" xmlns:xlink="http://www.w3.org/1999/xlink" x="0px" y="0px"
	 viewBox="0 0 128.5 120.2" style="enable-background:new 0 0 128.5 120.2;" xml:space="preserve">
<style type="text/css">
	.st0{fill-rule:evenodd;clip-rule:evenodd;fill:#D39A06;}
	.st1{fill:#FFFFFF;}
</style>
<circle class="st0" cx="64.2" cy="60.1" r="57.9"/>
<g>
	<path class="st1" d="M37.3,88.3l40.6,0l0,0h0c0,0,0.1,0,0.1,0c0,0,0,0,0.1,0c0,0,0,0,0.1,0c0,0,0,0,0.1,0c0,0,0,0,0.1,0
		c0,0,0,0,0.1,0c0,0,0,0,0.1,0c0,0,0,0,0.1,0c0,0,0,0,0.1,0c0,0,0,0,0.1,0c0,0,0,0,0.1,0c0,0,0,0,0.1,0c0,0,0,0,0,0c0,0,0,0,0.1-0.1
		c0,0,0,0,0,0l13.2-13c0,0,0,0,0,0c0,0,0,0,0.1-0.1c0,0,0,0,0,0c0,0,0-0.1,0.1-0.1c0,0,0,0,0-0.1c0,0,0,0,0,0c0,0,0,0,0-0.1
		c0,0,0,0,0-0.1c0,0,0,0,0-0.1c0,0,0,0,0-0.1c0,0,0,0,0-0.1c0,0,0,0,0-0.1c0,0,0-0.1,0-0.1c0,0,0,0,0,0c0,0,0-0.1,0-0.1c0,0,0,0,0,0
		l0-40.7c0-0.7-0.6-1.3-1.3-1.3l-40.6,0c0,0,0,0,0,0c0,0-0.1,0-0.1,0c0,0,0,0-0.1,0c0,0,0,0-0.1,0c0,0,0,0-0.1,0c0,0,0,0-0.1,0
		c0,0,0,0-0.1,0c0,0,0,0-0.1,0c0,0,0,0-0.1,0c0,0,0,0-0.1,0c0,0,0,0-0.1,0c0,0,0,0-0.1,0c0,0,0,0-0.1,0c0,0,0,0-0.1,0
		c0,0,0,0-0.1,0.1c0,0,0,0,0,0l-13.2,13c0,0,0,0,0,0c0,0,0,0-0.1,0.1c0,0,0,0,0,0c0,0,0,0.1-0.1,0.1c0,0,0,0,0,0.1c0,0,0,0,0,0
		c0,0,0,0,0,0.1c0,0,0,0,0,0.1c0,0,0,0,0,0.1c0,0,0,0,0,0.1c0,0,0,0,0,0.1c0,0,0,0,0,0.1c0,0,0,0.1,0,0.1c0,0,0,0,0,0
		c0,0,0,0.1,0,0.1c0,0,0,0,0,0L36,87C36,87.7,36.6,88.3,37.3,88.3z M76.6,85.6l-37.9,0l0-38.1l12.6,0l0,20.5l3.5-2.4l2.7,2.4
		l2.6-2.5l4.1,2.5l0-20.5l12.4,0L76.6,85.6z M79.3,46.8l10.6-10.7l0,37.3L79.2,83.8L79.3,46.8z M77.4,44.9l-11.6,0l10.1-10.3l11.7,0
		L77.4,44.9z M51.1,34.6l11.8,0L52.4,44.9l-11.8,0L51.1,34.6z"/>
	<path class="st1" d="M54.2,74.9l-14,0c-0.3,0-0.5,0.2-0.5,0.5l0,8c0,0.3,0.2,0.5,0.5,0.5l14,0c0.3,0,0.5-0.2,0.5-0.5l0-8
		C54.7,75.1,54.5,74.9,54.2,74.9z M53.8,82.9l-13,0l0-7.1l13,0L53.8,82.9z"/>
	<rect x="41.5" y="76.7" class="st1" width="0.7" height="5.5"/>
	<rect x="52.3" y="76.7" class="st1" width="0.6" height="5.5"/>
	<rect x="42.8" y="76.7" class="st1" width="0.7" height="5.5"/>
	<rect x="45.7" y="76.7" class="st1" width="0.7" height="5.5"/>
	<rect x="48.3" y="76.7" class="st1" width="0.6" height="5.5"/>
	<rect x="49.4" y="76.7" class="st1" width="0.6" height="5.5"/>
	<rect x="46.9" y="76.7" class="st1" width="1" height="5.5"/>
	<rect x="43.9" y="76.7" class="st1" width="1.2" height="5.5"/>
	<rect x="50.5" y="76.7" class="st1" width="1.2" height="5.5"/>
</g>
</svg>
