<?xml version="1.0" encoding="utf-8"?>
<!-- Generator: Adobe Illustrator 21.1.0, SVG Export Plug-In . SVG Version: 6.00 Build 0)  -->
<svg version="1.1" id="Layer_1" xmlns="http://www.w3.org/2000/svg" xmlns:xlink="http://www.w3.org/1999/xlink" x="0px" y="0px"
	 viewBox="0 0 128.5 120.2" style="enable-background:new 0 0 128.5 120.2;" xml:space="preserve">
<style type="text/css">
	.st0{fill-rule:evenodd;clip-rule:evenodd;fill:#D39A06;}
	.st1{fill:#FFFFFF;}
</style>
<circle class="st0" cx="64.2" cy="60.1" r="57.9"/>
<g>
	<path class="st1" d="M30.4,65.9h41.9c0.2,0,0.3-0.1,0.3-0.3V38.8c0-0.2-0.1-0.3-0.3-0.3H30.4c-0.2,0-0.3,0.1-0.3,0.3v26.8
		C30.1,65.8,30.2,65.9,30.4,65.9z"/>
	<path class="st1" d="M86.6,68.6c-3.6,0-6.5,2.9-6.5,6.5c0,3.6,2.9,6.5,6.5,6.5c3.6,0,6.5-2.9,6.5-6.5
		C93.1,71.5,90.2,68.6,86.6,68.6z M86.6,78.2c-1.7,0-3.1-1.4-3.1-3.1c0-1.7,1.4-3.1,3.1-3.1c1.7,0,3.1,1.4,3.1,3.1
		C89.7,76.8,88.3,78.2,86.6,78.2z"/>
	<path class="st1" d="M43.6,68.8c-3.6,0-6.5,2.9-6.5,6.5c0,3.6,2.9,6.5,6.5,6.5c3.6,0,6.5-2.9,6.5-6.5
		C50.1,71.7,47.1,68.8,43.6,68.8z M43.6,78.4c-1.7,0-3.1-1.4-3.1-3.1c0-1.7,1.4-3.1,3.1-3.1c1.7,0,3.1,1.4,3.1,3.1
		C46.7,77,45.3,78.4,43.6,78.4z"/>
	<path class="st1" d="M39.7,68.1c0.1-0.1,0.2-0.2,0.1-0.3c0-0.1-0.2-0.2-0.3-0.2h-9.7c-0.2,0-0.3,0.1-0.3,0.3v4
		c0,0.2,0.1,0.3,0.3,0.3h6.4c0.1,0,0.2-0.1,0.3-0.2C37.1,70.4,38.3,69,39.7,68.1z"/>
	<path class="st1" d="M98.7,67.6h-7.9c-0.1,0-0.3,0.1-0.3,0.2c0,0.1,0,0.3,0.1,0.3c2.4,1.5,3.8,4,3.8,6.8c0,0.3,0,0.6-0.1,1
		c0,0.1,0,0.2,0.1,0.2c0.1,0.1,0.1,0.1,0.2,0.1h4c0.2,0,0.3-0.1,0.3-0.3v-8C99,67.7,98.8,67.6,98.7,67.6z"/>
	<path class="st1" d="M82.5,68.4c0.2-0.1,0.3-0.3,0.3-0.5c0-0.3-0.3-0.6-0.6-0.6h0h-34c-0.3,0-0.5,0.2-0.6,0.4
		c-0.1,0.3,0,0.5,0.3,0.7c2.3,1.4,3.7,3.8,3.7,6.5c0,0.3,0,0.6-0.1,0.9c0,0.2,0,0.3,0.1,0.5c0.1,0.1,0.3,0.2,0.5,0.2h26.3
		c0.2,0,0.3-0.1,0.5-0.2c0.1-0.1,0.2-0.3,0.1-0.5c0-0.3-0.1-0.6-0.1-0.9C78.8,72.2,80.2,69.8,82.5,68.4z"/>
	<path class="st1" d="M88.8,43.2H77.6c-2,0-3.4,1-3.4,2.6v19.7c0,0.2,0.1,0.3,0.3,0.3h24.1c0.2,0,0.3-0.1,0.3-0.3v-5.8
		C99,56.6,93.4,43.2,88.8,43.2z M79.2,59V48h8.4c2.5,0,5.9,6.9,6,11H79.2z"/>
</g>
</svg>
