<?xml version="1.0" encoding="utf-8"?>
<!-- Generator: Adobe Illustrator 21.1.0, SVG Export Plug-In . SVG Version: 6.00 Build 0)  -->
<svg version="1.1" id="Layer_1" xmlns="http://www.w3.org/2000/svg" xmlns:xlink="http://www.w3.org/1999/xlink" x="0px" y="0px"
	 viewBox="0 0 23.8 23.2" style="enable-background:new 0 0 23.8 23.2;" xml:space="preserve">
<style type="text/css">
	.st0{fill:#D39A06;}
	.st1{fill:#FFFFFF;}
</style>
<g>
	<circle class="st0" cx="11.9" cy="11.6" r="11"/>
	<g id="XMLID_17_">
		<g>
			<path id="XMLID_29_" class="st1" d="M9.2,9.7H7.1C7,9.7,6.9,9.8,6.9,9.9v6.7c0,0.1,0.1,0.2,0.2,0.2h2.1c0.1,0,0.2-0.1,0.2-0.2
				V9.9C9.3,9.8,9.3,9.7,9.2,9.7z"/>
			<path id="XMLID_28_" class="st1" d="M8.1,6.4c-0.8,0-1.4,0.6-1.4,1.4c0,0.8,0.6,1.4,1.4,1.4c0.8,0,1.4-0.6,1.4-1.4
				C9.5,7.1,8.9,6.4,8.1,6.4z"/>
			<path id="XMLID_27_" class="st1" d="M14.4,9.6c-0.8,0-1.4,0.4-1.8,0.8V9.9c0-0.1-0.1-0.2-0.2-0.2h-2c-0.1,0-0.2,0.1-0.2,0.2v6.7
				c0,0.1,0.1,0.2,0.2,0.2h2.1c0.1,0,0.2-0.1,0.2-0.2v-3.3c0-1.1,0.3-1.5,1.1-1.5c0.8,0,0.9,0.7,0.9,1.6v3.2c0,0.1,0.1,0.2,0.2,0.2
				h2.1c0.1,0,0.2-0.1,0.2-0.2v-3.7C17.1,11.3,16.8,9.6,14.4,9.6z"/>
		</g>
	</g>
</g>
</svg>
