<?xml version="1.0" encoding="utf-8"?>
<!-- Generator: Adobe Illustrator 21.1.0, SVG Export Plug-In . SVG Version: 6.00 Build 0)  -->
<svg version="1.1" id="Layer_1" xmlns="http://www.w3.org/2000/svg" xmlns:xlink="http://www.w3.org/1999/xlink" x="0px" y="0px"
	 viewBox="0 0 128.5 120.2" style="enable-background:new 0 0 128.5 120.2;" xml:space="preserve">
<style type="text/css">
	.st0{fill-rule:evenodd;clip-rule:evenodd;fill:#D39A06;}
	.st1{fill:#FFFFFF;}
</style>
<circle class="st0" cx="64.2" cy="60.1" r="57.9"/>
<g>
	<path class="st1" d="M87.4,53.7c0-0.1-0.1-0.2-0.2-0.3c-0.1,0-0.2,0-0.3,0.1L75.9,65c-0.1,0.1-0.1,0.2-0.1,0.3L82,90.5
		c0,0.1,0.1,0.2,0.2,0.2c0,0,0,0,0.1,0c0.1,0,0.2,0,0.2-0.1l7.3-8.7c0.1-0.1,0.1-0.1,0.1-0.2L87.4,53.7z"/>
	<path class="st1" d="M71.9,40.8c0-0.1-0.1-0.2-0.3-0.2L42,38.6c-0.1,0-0.1,0-0.2,0.1l-10.2,6.9c-0.1,0.1-0.2,0.2-0.1,0.3
		c0,0.1,0.1,0.2,0.2,0.2L60,53.5c0,0,0.1,0,0.1,0c0.1,0,0.2,0,0.2-0.1l11.5-12.3C71.9,41.1,72,41,71.9,40.8z"/>
	<path class="st1" d="M95.3,31.2c-1.4-1.4-3.4-1.7-4.9-1.7c-2.6,0-5.4,0.9-6.7,2.2c-1.8,1.8-28.4,30.3-33,35.2l-9.5-0.7
		c-0.1,0-0.2,0.1-0.3,0.2l-2.5,4.3c0,0.1-0.1,0.2,0,0.3c0,0.1,0.1,0.2,0.2,0.2l13.1,5.4l3.8,12.8c0,0.1,0.1,0.2,0.2,0.2
		c0,0,0.1,0,0.1,0c0,0,0.1,0,0.1,0l5.4-2.3c0.1-0.1,0.2-0.2,0.2-0.3l-0.8-9.9c4.8-4.8,32.5-32.2,34.4-34.1c1.1-1.1,1.9-3.3,2-5.6
		C97.2,34.7,96.6,32.5,95.3,31.2z"/>
	<path class="st1" d="M56.4,88.9l-4.3-13.7c0-0.1-0.1-0.2-0.2-0.2L39,70c-0.1-0.1-0.3,0-0.4,0.1l-0.9,1.3c0,0.1-0.1,0.2,0,0.3
		c0,0.1,0.1,0.2,0.2,0.2l12.5,5l3.9,12.8c0,0.1,0.1,0.2,0.2,0.2c0,0,0.1,0,0.1,0c0,0,0.1,0,0.1,0l1.5-0.6
		C56.4,89.3,56.5,89.1,56.4,88.9z"/>
</g>
</svg>
