<?xml version="1.0" encoding="utf-8"?>
<!-- Generator: Adobe Illustrator 21.1.0, SVG Export Plug-In . SVG Version: 6.00 Build 0)  -->
<svg version="1.1" id="Layer_1" xmlns="http://www.w3.org/2000/svg" xmlns:xlink="http://www.w3.org/1999/xlink" x="0px" y="0px"
	 viewBox="0 0 23.8 23.2" style="enable-background:new 0 0 23.8 23.2;" xml:space="preserve">
<style type="text/css">
	.st0{fill:#D39A06;}
	.st1{fill:#FFFFFF;}
</style>
<g>
	<circle class="st0" cx="11.9" cy="11.6" r="11"/>
	<g>
		<g>
			<path class="st1" d="M18.5,7.4c-0.5,0.2-1,0.4-1.5,0.4c0.6-0.3,1-0.9,1.2-1.5C17.6,6.7,17,6.9,16.4,7c-0.5-0.5-1.2-0.8-2-0.8
				c-1.5,0-2.7,1.2-2.7,2.7c0,0.2,0,0.4,0.1,0.6C9.6,9.3,7.6,8.3,6.3,6.7C6,7,5.9,7.5,5.9,8c0,0.9,0.5,1.8,1.2,2.2
				c-0.4,0-0.9-0.1-1.2-0.3c0,0,0,0,0,0c0,1.3,0.9,2.4,2.2,2.6c-0.2,0.1-0.5,0.1-0.7,0.1c-0.2,0-0.3,0-0.5,0
				c0.3,1.1,1.3,1.8,2.5,1.9c-0.9,0.7-2.1,1.2-3.3,1.2c-0.2,0-0.4,0-0.6,0c1.2,0.8,2.6,1.2,4.1,1.2c4.9,0,7.7-4.1,7.7-7.7
				c0-0.1,0-0.2,0-0.3C17.7,8.4,18.1,8,18.5,7.4z"/>
		</g>
	</g>
</g>
</svg>
