<?xml version="1.0" encoding="utf-8"?>
<!-- Generator: Adobe Illustrator 21.1.0, SVG Export Plug-In . SVG Version: 6.00 Build 0)  -->
<svg version="1.1" id="Layer_1" xmlns="http://www.w3.org/2000/svg" xmlns:xlink="http://www.w3.org/1999/xlink" x="0px" y="0px"
	 viewBox="0 0 128.5 120.2" style="enable-background:new 0 0 128.5 120.2;" xml:space="preserve">
<style type="text/css">
	.st0{fill-rule:evenodd;clip-rule:evenodd;fill:#D39A06;}
	.st1{fill:#FFFFFF;}
</style>
<circle class="st0" cx="64.2" cy="60.1" r="57.9"/>
<g>
	<path class="st1" d="M48.5,34.1l-5.3,0c-2,0-3.6,1.6-3.6,3.6l0,52.8c0,2,1.6,3.6,3.6,3.6l42.1,0c2,0,3.6-1.6,3.6-3.6l0-52.8
		c0-2-1.6-3.6-3.6-3.6l-5.3,0c-0.1-2-1.6-3.6-3.5-3.6l-3.5,0C72.5,28,70.3,26,67.6,26l-5.8,0c-2.7,0-5,2-5.4,4.5l-4.3,0
		C50.2,30.6,48.6,32.2,48.5,34.1z M79.8,39.7l2.6,0l0,46.7l-36.4,0l0-46.7l2.7,0c0.5,1.5,1.8,2.6,3.4,2.6l24.4,0
		C78,42.3,79.4,41.2,79.8,39.7z M86.3,37.7l0,52.8c0,0.6-0.5,1-1,1l-42.1,0c-0.6,0-1-0.5-1-1l0-52.8c0-0.6,0.5-1,1-1l5.3,0l0,0.4
		l-3.8,0c-0.7,0-1.3,0.6-1.3,1.3l0,49.2c0,0.7,0.6,1.3,1.3,1.3l39,0c0.7,0,1.3-0.6,1.3-1.3l0-49.2c0-0.7-0.6-1.3-1.3-1.3l-3.7,0
		l0-0.4l5.3,0C85.9,36.7,86.3,37.2,86.3,37.7z M51.1,34.3c0-0.7,0.4-1.2,1-1.2l5.5,0h0l0,0c0.7,0,1.3-0.6,1.3-1.3l0-0.3
		c0-1.6,1.3-2.9,2.9-2.9l5.8,0c1.6,0,2.9,1.3,2.9,2.9l0,0.3l0,0c0,0.7,0.6,1.3,1.3,1.3h0l4.7,0c0.5,0,1,0.5,1,1.2l0,1.1c0,0,0,0,0,0
		c0,0,0,0,0,0l0,3.1c0,0.7-0.4,1.2-1,1.2l-24.4,0c-0.5,0-1-0.5-1-1.2l0-3.1L51.1,34.3z"/>
	<path class="st1" d="M64,36.4c2.1,0,3.8-1.7,3.8-3.8c0-2.1-1.7-3.8-3.8-3.8c-2.1,0-3.8,1.7-3.8,3.8C60.2,34.7,61.9,36.4,64,36.4z
		 M64,31.4c0.7,0,1.2,0.5,1.2,1.2c0,0.7-0.5,1.2-1.2,1.2s-1.2-0.5-1.2-1.2C62.8,32,63.3,31.4,64,31.4z"/>
	<path class="st1" d="M48.1,49.3c0,0.7,0.6,1.3,1.3,1.3l29.1,0c0.7,0,1.3-0.6,1.3-1.3c0-0.7-0.6-1.3-1.3-1.3l-29.1,0
		C48.7,48.1,48.1,48.6,48.1,49.3z"/>
	<path class="st1" d="M66.8,57l-17.4,0c-0.7,0-1.3,0.6-1.3,1.3c0,0.7,0.6,1.3,1.3,1.3l17.4,0c0.7,0,1.3-0.6,1.3-1.3
		C68.1,57.6,67.6,57,66.8,57z"/>
	<path class="st1" d="M66.8,66.8l-17.4,0c-0.7,0-1.3,0.6-1.3,1.3c0,0.7,0.6,1.3,1.3,1.3l17.4,0c0.7,0,1.3-0.6,1.3-1.3
		C68.1,67.4,67.6,66.8,66.8,66.8z"/>
	<path class="st1" d="M66.8,76.6l-17.4,0c-0.7,0-1.3,0.6-1.3,1.3c0,0.7,0.6,1.3,1.3,1.3l17.4,0c0.7,0,1.3-0.6,1.3-1.3
		C68.1,77.2,67.6,76.6,66.8,76.6z"/>
	<path class="st1" d="M76.5,54.1l-3.3,3.4l-0.9-1.2c-0.4-0.6-1.2-0.7-1.8-0.3c-0.6,0.4-0.7,1.2-0.3,1.8l1.8,2.5
		c0.2,0.3,0.6,0.5,1,0.5c0,0,0.1,0,0.1,0c0.4,0,0.7-0.1,0.9-0.4l4.3-4.5c0.5-0.5,0.5-1.3,0-1.8C77.8,53.6,77,53.6,76.5,54.1z"/>
	<path class="st1" d="M76.5,64.4l-3.3,3.4l-0.9-1.2c-0.4-0.6-1.2-0.7-1.8-0.3c-0.6,0.4-0.7,1.2-0.3,1.8l1.8,2.5
		c0.2,0.3,0.6,0.5,1,0.5c0,0,0.1,0,0.1,0c0.4,0,0.7-0.1,0.9-0.4l4.3-4.5c0.5-0.5,0.5-1.3,0-1.8C77.8,63.8,77,63.9,76.5,64.4z"/>
	<path class="st1" d="M76.5,74.6L73.2,78l-0.9-1.2c-0.4-0.6-1.2-0.7-1.8-0.3c-0.6,0.4-0.7,1.2-0.3,1.8l1.8,2.5
		c0.2,0.3,0.6,0.5,1,0.5c0,0,0.1,0,0.1,0c0.4,0,0.7-0.1,0.9-0.4l4.3-4.5c0.5-0.5,0.5-1.3,0-1.8C77.8,74.1,77,74.1,76.5,74.6z"/>
</g>
</svg>
