<?xml version="1.0" encoding="utf-8"?>
<!-- Generator: Adobe Illustrator 21.1.0, SVG Export Plug-In . SVG Version: 6.00 Build 0)  -->
<svg version="1.1" id="Layer_1" xmlns="http://www.w3.org/2000/svg" xmlns:xlink="http://www.w3.org/1999/xlink" x="0px" y="0px"
	 viewBox="0 0 128.5 120.2" style="enable-background:new 0 0 128.5 120.2;" xml:space="preserve">
<style type="text/css">
	.st0{fill-rule:evenodd;clip-rule:evenodd;fill:#D39A06;}
	.st1{fill:#FFFFFF;}
</style>
<circle class="st0" cx="64.2" cy="60.1" r="57.9"/>
<g>
	<path class="st1" d="M95.4,64.2h4.9c0.1,0,0.2-0.1,0.2-0.2V42.7c0-0.1-0.1-0.2-0.2-0.2h-4.9c-0.1,0-0.2,0.1-0.2,0.2V64
		C95.2,64.1,95.3,64.2,95.4,64.2z"/>
	<path class="st1" d="M68.1,58.5H56.5c-0.1,0-0.2,0.1-0.2,0.2v5.4c0,0.1,0.1,0.2,0.2,0.2h11.5c0.1,0,0.2-0.1,0.2-0.2v-5.4
		C68.3,58.6,68.2,58.5,68.1,58.5z"/>
	<path class="st1" d="M69.9,57.2h11.5c0.1,0,0.2-0.1,0.2-0.2v-5.4c0-0.1-0.1-0.2-0.2-0.2H69.9c-0.1,0-0.2,0.1-0.2,0.2V57
		C69.7,57.1,69.8,57.2,69.9,57.2z"/>
	<path class="st1" d="M56.5,50.1H68c0.1,0,0.2-0.1,0.2-0.2v-5.4c0-0.1-0.1-0.2-0.2-0.2H56.5c-0.1,0-0.2,0.1-0.2,0.2v5.4
		C56.3,50,56.4,50.1,56.5,50.1z"/>
	<path class="st1" d="M104.2,65.7c0,0-0.1-0.1-0.1-0.1H25.3c-0.2,0-0.8,0-1,0.4c-0.2,0.7,1.1,1.9,3.3,3.7c1.7,1.4,3.8,3.2,3.8,4v3.7
		c0,0.1,0.1,0.2,0.2,0.2h65.2c4.8,0,7.4-11.3,7.5-11.8C104.3,65.8,104.2,65.8,104.2,65.7z M31.1,70.1c-0.9,0-1.6-0.7-1.6-1.6
		c0-0.9,0.7-1.6,1.6-1.6c0.9,0,1.6,0.7,1.6,1.6C32.6,69.4,31.9,70.1,31.1,70.1z"/>
	<path class="st1" d="M94.5,51.5H84.2c-0.1,0-0.2,0.1-0.2,0.2V64c0,0.1,0.1,0.2,0.2,0.2h16.1c0.1,0,0.2-0.1,0.3-0.2
		c0-0.1,0.1-0.2,0.1-0.3C100.7,61.7,96.5,51.5,94.5,51.5z"/>
	<path class="st1" d="M54.7,58.4H43.2c-0.1,0-0.2,0.1-0.2,0.2V64c0,0.1,0.1,0.2,0.2,0.2h11.5c0.1,0,0.2-0.1,0.2-0.2v-5.4
		C54.9,58.5,54.8,58.4,54.7,58.4z"/>
	<path class="st1" d="M81.4,58.4H69.9c-0.1,0-0.2,0.1-0.2,0.2V64c0,0.1,0.1,0.2,0.2,0.2h11.5c0.1,0,0.2-0.1,0.2-0.2v-5.4
		C81.6,58.5,81.6,58.4,81.4,58.4z"/>
	<path class="st1" d="M68,51.3H56.5c-0.1,0-0.2,0.1-0.2,0.2v5.4c0,0.1,0.1,0.2,0.2,0.2H68c0.1,0,0.2-0.1,0.2-0.2v-5.4
		C68.2,51.4,68.1,51.3,68,51.3z"/>
	<path class="st1" d="M37.3,51.8h-2.7c-0.1,0-0.2,0.1-0.2,0.2v12c0,0.1,0.1,0.2,0.2,0.2h2.7c0.1,0,0.2-0.1,0.2-0.2V52
		C37.5,51.8,37.4,51.8,37.3,51.8z"/>
</g>
</svg>
