<?xml version="1.0" encoding="utf-8"?>
<!-- Generator: Adobe Illustrator 21.1.0, SVG Export Plug-In . SVG Version: 6.00 Build 0)  -->
<svg version="1.1" id="Layer_1" xmlns="http://www.w3.org/2000/svg" xmlns:xlink="http://www.w3.org/1999/xlink" x="0px" y="0px"
	 viewBox="0 0 23.8 23.2" style="enable-background:new 0 0 23.8 23.2;" xml:space="preserve">
<style type="text/css">
	.st0{fill:#D39A06;}
	.st1{fill:#FFFFFF;}
</style>
<g>
	<circle class="st0" cx="11.9" cy="11.6" r="11"/>
	<g>
		<g>
			<g>
				<path class="st1" d="M13.1,13.6c-0.2-0.2-0.3-0.4-0.5-0.6c-0.2-0.2-0.4-0.4-0.6-0.5c-0.2-0.2-0.4-0.3-0.5-0.4
					c-0.2-0.1-0.3-0.3-0.4-0.4c-0.1-0.2-0.1-0.3-0.1-0.5c0-0.2,0.1-0.4,0.2-0.6c0.1-0.2,0.3-0.4,0.5-0.6c0.2-0.2,0.4-0.4,0.6-0.6
					c0.2-0.2,0.4-0.5,0.5-0.8c0.1-0.3,0.2-0.7,0.2-1.2c0-0.5-0.1-1-0.4-1.5c-0.2-0.5-0.6-0.9-1-1.1h1.2L14,4.1H10
					c-0.6,0-1.1,0.1-1.7,0.2C7.5,4.4,6.8,4.9,6.2,5.5C5.7,6.2,5.4,6.9,5.4,7.8c0,0.9,0.3,1.6,1,2.2c0.6,0.6,1.4,0.9,2.3,0.9
					c0.2,0,0.4,0,0.6,0c0,0,0,0.1-0.1,0.2c0,0.1-0.1,0.1-0.1,0.2c0,0,0,0.1,0,0.2c0,0.1,0,0.1,0,0.2c0,0.4,0.2,0.8,0.6,1.3
					c-0.5,0-0.9,0.1-1.4,0.1c-0.4,0.1-0.9,0.2-1.4,0.3c-0.5,0.1-0.9,0.4-1.3,0.6c-0.4,0.3-0.7,0.6-0.9,1c-0.2,0.4-0.3,0.9-0.3,1.2
					c0,0.4,0.1,0.8,0.3,1.1c0.2,0.3,0.4,0.6,0.7,0.8c0.3,0.2,0.6,0.4,1,0.5C6.7,18.9,7.1,19,7.4,19c0.4,0.1,0.7,0.1,1.1,0.1
					c1.6,0,2.9-0.4,3.8-1.2c0.8-0.7,1.3-1.6,1.3-2.5c0-0.3,0-0.7-0.1-1C13.3,14.1,13.2,13.9,13.1,13.6z M9.6,10.4
					c-0.3,0-0.6-0.1-0.9-0.2C8.4,10,8.2,9.8,8,9.5C7.8,9.3,7.6,9,7.5,8.7C7.3,8.4,7.2,8,7.2,7.7C7.1,7.4,7.1,7.1,7.1,6.8
					c0-0.6,0.2-1.1,0.5-1.5c0.3-0.4,0.7-0.6,1.3-0.6c0.4,0,0.8,0.1,1.1,0.4c0.3,0.2,0.6,0.6,0.8,0.9c0.2,0.4,0.3,0.8,0.4,1.2
					c0.1,0.4,0.1,0.8,0.1,1.2c0,0.6-0.1,1.1-0.4,1.5C10.6,10.2,10.2,10.4,9.6,10.4z M12.1,17.1c-0.2,0.3-0.4,0.5-0.7,0.7
					c-0.3,0.2-0.6,0.3-0.9,0.4c-0.3,0.1-0.7,0.1-1,0.1c-0.4,0-0.8,0-1.1-0.1c-0.4-0.1-0.7-0.2-1.1-0.4c-0.3-0.2-0.6-0.4-0.8-0.8
					c-0.2-0.3-0.3-0.7-0.3-1.1c0-0.4,0.1-0.7,0.2-1c0.2-0.3,0.4-0.5,0.6-0.7c0.3-0.2,0.5-0.3,0.9-0.4c0.3-0.1,0.7-0.2,1-0.2
					c0.3,0,0.6-0.1,1-0.1c0.2,0,0.3,0,0.5,0c0,0,0.1,0.1,0.3,0.2c0.1,0.1,0.2,0.2,0.3,0.2c0.1,0,0.1,0.1,0.3,0.2
					c0.1,0.1,0.2,0.2,0.3,0.2c0.1,0.1,0.1,0.1,0.2,0.2c0.1,0.1,0.2,0.2,0.2,0.3c0.1,0.1,0.1,0.2,0.2,0.3c0.1,0.1,0.1,0.2,0.2,0.3
					c0,0.1,0.1,0.2,0.1,0.3c0,0.1,0,0.2,0,0.4C12.3,16.5,12.2,16.9,12.1,17.1z"/>
				<polygon class="st1" points="17.1,6.4 17.1,4.1 16,4.1 16,6.4 13.7,6.4 13.7,7.5 16,7.5 16,9.9 17.1,9.9 17.1,7.5 19.4,7.5 
					19.4,6.4 				"/>
			</g>
		</g>
	</g>
</g>
</svg>
