<?xml version="1.0" encoding="utf-8"?>
<!-- Generator: Adobe Illustrator 21.1.0, SVG Export Plug-In . SVG Version: 6.00 Build 0)  -->
<svg version="1.1" id="Layer_1" xmlns="http://www.w3.org/2000/svg" xmlns:xlink="http://www.w3.org/1999/xlink" x="0px" y="0px"
	 viewBox="0 0 312.6 74.8" style="enable-background:new 0 0 312.6 74.8;" xml:space="preserve">
<style type="text/css">
	.st0{fill-rule:evenodd;clip-rule:evenodd;fill:#D39A06;}
	.st1{fill-rule:evenodd;clip-rule:evenodd;fill:url(#SVGID_1_);}
	.st2{fill-rule:evenodd;clip-rule:evenodd;fill:url(#SVGID_2_);}
	.st3{fill-rule:evenodd;clip-rule:evenodd;fill:url(#SVGID_3_);}
	.st4{fill-rule:evenodd;clip-rule:evenodd;fill:#00592C;}
	.st5{fill:#FBE093;}
	.st6{fill-rule:evenodd;clip-rule:evenodd;fill:none;stroke:#FBE093;stroke-width:4.6695;stroke-miterlimit:7.6613;}
</style>
<path class="st0" d="M41.9,23.1l-1.4,6.4H26.8l1.6-6.4h-2l-6.4,25.8h2.2l2.9-8.6h-1.4l2-8.4H27h12.9l-5.2,19.8
	c-0.7,2.7-2.2,4.1-4.4,4.1h-22c-2.6,0-3.5-1.7-2.7-5l7.9-30.1c0.9-3.3,2.7-5,5.4-5h12.1c4.5,0,7.4,0,8.6,0.1c2,0.7,3,2,3,3.8
	C42.5,20.7,42.3,21.8,41.9,23.1z M41.9,23.1L41.9,23.1L41.9,23.1z M89.3,23.1c0.4-1.3,0.5-2.5,0.5-3.4c0-1.8-1.1-3.1-3.3-4h-11H62.8
	H46.5L36,55.9h13.6l8.7-32.8h1.8l-8.5,32.8h13.7l8.3-32.8h2l-8.5,32.8h13.7L89.3,23.1z M89.3,23.1L89.3,23.1L89.3,23.1z M47,50.9
	c0,0,1.2-1.4,2.1-3.3h-2.4c0,0-0.3,0.9-0.8,1.7L45,48.1c-0.4-0.6-0.5-0.9-0.4-1.1c0-0.2,0.2-0.3,0.6-0.3c0.8,0,1.8,0.1,1.8,0.1
	l0.6-1.8c0,0-1.3-0.1-2.5-0.1c-1.8,0-2.8,0.5-3,1.9c-0.1,1,0.5,1.7,0.5,1.7c-1,0-2.2,0.5-2.4,2.3c-0.2,1.9,0.8,3.1,2.5,3.1
	c1.6,0,2.8-1.2,2.8-1.2l0.7,1h3L47,50.9z M47,50.9L47,50.9L47,50.9z M44.3,51.1l-1-1.5c-0.4,0.1-0.7,0.3-0.8,1.1
	c0,0.8,0.2,1.1,0.7,1.1C43.7,51.8,44.3,51.1,44.3,51.1z"/>
<g>
	<linearGradient id="SVGID_1_" gradientUnits="userSpaceOnUse" x1="141.1914" y1="69.271" x2="138.8592" y2="2.4853">
		<stop  offset="0" style="stop-color:#8F5F1A"/>
		<stop  offset="1" style="stop-color:#FFFFFF"/>
	</linearGradient>
	<polygon class="st1" points="107.6,35.3 107.6,36.4 107.8,39.2 108.3,42.3 109.1,45.4 110.2,48.3 111.5,51.1 113.2,53.8 115,56.2 
		117.1,58.5 119.4,60.6 121.9,62.4 124.6,64 127.4,65.4 130.4,66.4 133.5,67.2 136.7,67.7 140,67.9 143.3,67.7 146.6,67.2 
		149.7,66.4 152.6,65.4 155.4,64 158.1,62.4 160.6,60.6 162.9,58.5 165,56.2 166.9,53.8 168.5,51.1 169.9,48.3 171,45.4 171.7,42.3 
		172.2,39.2 172.4,35.9 172.2,32.6 171.7,29.4 171,26.4 169.9,23.4 168.5,20.6 166.9,18 165,15.5 162.9,13.3 160.6,11.2 158.1,9.3 
		155.4,7.7 152.6,6.4 149.7,5.3 146.6,4.6 143.3,4.1 140,3.9 136.7,4.1 133.5,4.6 130.4,5.3 127.4,6.4 124.6,7.7 121.9,9.3 
		119.4,11.2 117.1,13.3 115,15.5 113.2,18 111.5,20.6 110.2,23.4 109.1,26.4 108.3,29.4 107.8,32.6 	"/>
	<linearGradient id="SVGID_2_" gradientUnits="userSpaceOnUse" x1="140.1526" y1="5.45" x2="140.1526" y2="66.3312">
		<stop  offset="0" style="stop-color:#8F5F1A"/>
		<stop  offset="1" style="stop-color:#FFFFFF"/>
	</linearGradient>
	<polygon class="st2" points="170.8,35.9 170.6,39 170.2,42 169.4,44.9 168.4,47.7 167.1,50.3 165.5,52.8 163.8,55.1 161.8,57.3 
		159.6,59.2 157.3,61 154.7,62.5 152.1,63.8 149.3,64.8 146.3,65.5 143.3,66 140.2,66.1 137,66 134,65.5 131,64.8 128.2,63.8 
		125.5,62.5 123,61 120.7,59.2 118.5,57.3 116.5,55.1 114.7,52.8 113.2,50.3 111.9,47.7 110.9,44.9 110.2,42 109.7,39 109.5,35.9 
		109.7,32.8 110.2,29.8 110.9,26.9 111.9,24.1 113.2,21.5 114.7,19 116.5,16.6 118.5,14.5 120.7,12.6 123,10.8 125.5,9.3 128.2,8 
		131,7 134,6.3 137,5.8 140.2,5.6 143.3,5.8 146.3,6.3 149.3,7 152.1,8 154.7,9.3 157.3,10.8 159.6,12.6 161.8,14.5 163.8,16.6 
		165.5,19 167.1,21.5 168.4,24.1 169.4,26.9 170.2,29.8 170.6,32.8 	"/>
	<linearGradient id="SVGID_3_" gradientUnits="userSpaceOnUse" x1="140.7734" y1="64.1413" x2="139.7868" y2="7.6215">
		<stop  offset="0" style="stop-color:#8F5F1A"/>
		<stop  offset="1" style="stop-color:#FFFFFF"/>
	</linearGradient>
	<polygon class="st3" points="112.7,35.3 112.7,36.4 112.8,38.7 113.2,41.4 113.9,44 114.8,46.5 116,48.9 117.4,51.1 118.9,53.3 
		120.7,55.2 122.7,56.9 124.8,58.5 127.1,59.9 129.5,61.1 132.1,62 134.7,62.6 137.4,63 140.3,63.2 143.1,63 145.9,62.6 148.5,62 
		151,61.1 153.4,59.9 155.7,58.5 157.9,56.9 159.8,55.2 161.6,53.3 163.2,51.1 164.6,48.9 165.7,46.5 166.7,44 167.4,41.4 
		167.8,38.7 167.9,35.9 167.8,33.1 167.4,30.4 166.7,27.7 165.7,25.3 164.6,22.9 163.2,20.6 161.6,18.5 159.8,16.6 157.9,14.8 
		155.7,13.3 153.4,11.8 151,10.7 148.5,9.8 145.9,9.1 143.1,8.7 140.3,8.6 137.4,8.7 134.7,9.1 132.1,9.8 129.5,10.7 127.1,11.8 
		124.8,13.3 122.7,14.8 120.7,16.6 118.9,18.5 117.4,20.6 116,22.9 114.8,25.3 113.9,27.7 113.2,30.4 112.8,33.1 	"/>
	<path class="st4" d="M117.6,35.4c0,12.3,9.9,22.2,22.2,22.2l0,0l0,0c12.3,0,22.2-9.9,22.2-22.2s-9.9-22.2-22.2-22.2l0,0h0l0,0
		C127.5,13.2,117.6,23.1,117.6,35.4z M117.6,35.4L117.6,35.4L117.6,35.4z M138.9,16.1c0.2-0.5,0.4-0.8,0.6-1
		c0.1-0.1,0.1-0.1,0.2-0.1c0,0,0,0,0,0c0,0,0.1,0.1,0.3,0.3c0.3,0.4,0.7,1.3,1.1,2.5c0.3,1.1,0.6,2.4,0.9,4
		c-0.8-0.1-1.6-0.1-2.4-0.1s-1.6,0-2.4,0.1c0.1-0.4,0.1-0.9,0.2-1.3C138,18.6,138.5,17.1,138.9,16.1z M138.9,16.1L138.9,16.1
		L138.9,16.1z M139.8,23.5c0.9,0,1.8,0,2.6,0.1c0.3,2,0.5,4.2,0.6,6.6c-1,0-2.1,0-3.2,0c-1.1,0-2.2,0-3.2,0c0.1-2.4,0.3-4.6,0.6-6.6
		C138,23.6,138.9,23.5,139.8,23.5z M139.8,23.5L139.8,23.5L139.8,23.5z M160.1,35.3L160.1,35.3c0,0.1-0.1,0.2-0.3,0.4
		c-0.4,0.3-1.3,0.7-2.5,1.1c-1.1,0.3-2.4,0.6-4,0.9c0.1-0.8,0.1-1.6,0.1-2.4s0-1.6-0.1-2.4c0.4,0.1,0.9,0.1,1.3,0.2
		c1.9,0.4,3.4,0.8,4.4,1.3c0.5,0.2,0.8,0.4,1,0.6C160.1,35.3,160.1,35.3,160.1,35.3z M160.1,35.3L160.1,35.3L160.1,35.3z
		 M151.6,35.4c0,0.9-0.1,1.8-0.1,2.6c-2,0.3-4.2,0.5-6.6,0.6c0-1,0.1-2.1,0.1-3.2c0-1.1,0-2.2-0.1-3.2c2.4,0.1,4.6,0.3,6.6,0.6
		C151.6,33.6,151.6,34.5,151.6,35.4z M151.6,35.4L151.6,35.4L151.6,35.4z M140.6,54.6c-0.2,0.5-0.4,0.8-0.6,1
		c-0.1,0.1-0.1,0.1-0.2,0.1l0,0c0,0-0.2-0.1-0.3-0.3c-0.4-0.4-0.8-1.3-1.1-2.5c-0.4-1.1-0.6-2.4-0.9-4c0.8,0.1,1.6,0.1,2.4,0.1
		s1.6,0,2.4-0.1c-0.1,0.4-0.2,0.9-0.2,1.3C141.5,52.1,141.1,53.6,140.6,54.6z M140.6,54.6L140.6,54.6L140.6,54.6z M139.8,47.2
		L139.8,47.2c-0.9,0-1.8-0.1-2.6-0.1c-0.3-2-0.5-4.2-0.6-6.6c1.1,0,2.1,0.1,3.2,0.1c1.1,0,2.2,0,3.2-0.1c-0.1,2.4-0.3,4.6-0.6,6.6
		C141.5,47.2,140.7,47.2,139.8,47.2z M139.8,47.2L139.8,47.2L139.8,47.2z M144.8,40.4c2.3-0.1,4.5-0.3,6.5-0.6c-0.3,2-0.7,4-1.3,5.7
		c-1.7,0.6-3.7,1-5.7,1.3C144.5,44.9,144.7,42.8,144.8,40.4z M144.8,40.4L144.8,40.4L144.8,40.4z M143.1,35.4c0,1.1,0,2.2,0,3.3
		c-1.1,0-2.2,0-3.3,0c-1.1,0-2.2,0-3.3,0c0-1.1-0.1-2.2-0.1-3.3s0-2.2,0.1-3.3c1.1,0,2.2-0.1,3.3-0.1c1.1,0,2.2,0,3.3,0.1
		C143.1,33.1,143.1,34.3,143.1,35.4z M143.1,35.4L143.1,35.4L143.1,35.4z M134.7,30.3c-2.4,0.1-4.5,0.3-6.5,0.6
		c0.3-2.1,0.7-4,1.3-5.7c1.8-0.6,3.7-1.1,5.7-1.3C135,25.8,134.8,28,134.7,30.3z M134.7,30.3L134.7,30.3L134.7,30.3z M134.6,32.1
		c0,1.1,0,2.1,0,3.2c0,1.1,0,2.2,0,3.2c-2.4-0.1-4.6-0.3-6.6-0.6c-0.1-0.9-0.1-1.7-0.1-2.6c0-0.9,0-1.8,0.1-2.6
		C130,32.5,132.2,32.3,134.6,32.1z M134.6,32.1L134.6,32.1L134.6,32.1z M126.2,37.7c-0.4-0.1-0.9-0.2-1.3-0.2
		c-1.9-0.4-3.4-0.8-4.4-1.3c-0.5-0.2-0.8-0.5-1-0.6c-0.1-0.1-0.1-0.1-0.1-0.2l0,0c0-0.1,0.1-0.2,0.3-0.3c0.4-0.4,1.3-0.8,2.5-1.1
		c1.1-0.4,2.4-0.6,4-0.9c-0.1,0.8-0.1,1.6-0.1,2.4S126.1,36.9,126.2,37.7z M126.2,37.7L126.2,37.7L126.2,37.7z M121.3,38.4
		c1.4,0.5,3.1,0.9,5.1,1.2c0.2,1.8,0.6,3.5,1,5.1c-0.8-0.4-1.5-0.7-2.1-1.1c-1.8-1.1-3.3-2.4-4.3-3.8c-0.4-0.6-0.8-1.3-1-1.9
		C120.3,38.1,120.8,38.3,121.3,38.4z M121.3,38.4L121.3,38.4L121.3,38.4z M128.2,39.9c2,0.2,4.1,0.4,6.5,0.6
		c0.1,2.3,0.3,4.5,0.6,6.5c-2.1-0.3-4-0.7-5.7-1.3C128.9,43.8,128.5,41.9,128.2,39.9z M128.2,39.9L128.2,39.9L128.2,39.9z
		 M135.5,48.8c0.1,0.6,0.2,1.2,0.3,1.8c0.4,1.9,0.8,3.5,1.4,4.6c-0.6-0.2-1.3-0.6-1.9-1c-1.9-1.4-3.6-3.6-4.9-6.4
		C132,48.3,133.7,48.6,135.5,48.8z M135.5,48.8L135.5,48.8L135.5,48.8z M144.2,54.2c-0.6,0.4-1.3,0.8-1.9,1c0.2-0.4,0.4-0.9,0.5-1.4
		c0.5-1.4,0.9-3.1,1.2-5c1.8-0.2,3.5-0.6,5.1-1c-0.4,0.8-0.7,1.5-1.1,2.1C146.9,51.8,145.6,53.2,144.2,54.2z M144.2,54.2L144.2,54.2
		L144.2,54.2z M153.2,39.6c0.6-0.1,1.2-0.2,1.8-0.3c1.9-0.4,3.5-0.9,4.6-1.4c-0.2,0.6-0.6,1.3-1,1.9c-1.4,1.9-3.6,3.6-6.4,4.9
		C152.7,43.1,153,41.4,153.2,39.6z M153.2,39.6L153.2,39.6L153.2,39.6z M158.2,32.3c-1.4-0.4-3.1-0.8-5-1.1c-0.2-1.8-0.6-3.5-1-5.1
		c0.8,0.4,1.5,0.7,2.1,1.1c1.9,1.1,3.3,2.4,4.3,3.8c0.4,0.6,0.8,1.2,1,1.9C159.2,32.6,158.8,32.5,158.2,32.3z M158.2,32.3
		L158.2,32.3L158.2,32.3z M151.3,30.9c-2-0.3-4.1-0.4-6.5-0.6c-0.1-2.4-0.3-4.5-0.6-6.5c2,0.3,4,0.7,5.7,1.3
		C150.6,26.9,151,28.8,151.3,30.9z M151.3,30.9L151.3,30.9L151.3,30.9z M144,21.9c-0.1-0.6-0.2-1.2-0.3-1.8
		c-0.4-1.9-0.9-3.5-1.4-4.6c0.6,0.3,1.3,0.6,1.9,1c1.9,1.3,3.6,3.6,4.9,6.4C147.5,22.5,145.8,22.1,144,21.9z M144,21.9L144,21.9
		L144,21.9z M135.3,16.5c0.6-0.4,1.2-0.8,1.9-1c-0.2,0.4-0.4,0.9-0.5,1.4c-0.4,1.4-0.8,3.1-1.1,5.1c-1.8,0.2-3.5,0.6-5.1,1
		c0.4-0.8,0.7-1.5,1.1-2.1C132.6,19,133.9,17.5,135.3,16.5z M135.3,16.5L135.3,16.5L135.3,16.5z M126.3,31.1
		c-0.6,0.1-1.2,0.2-1.8,0.3c-1.9,0.4-3.5,0.8-4.6,1.4c0.2-0.6,0.6-1.3,1-1.9c1.3-1.9,3.6-3.6,6.4-4.9
		C126.9,27.6,126.5,29.3,126.3,31.1z M126.3,31.1L126.3,31.1L126.3,31.1z M120.6,42.3c1.7,1.8,4.1,3.3,6.9,4.5
		c0.2,0.1,0.4,0.1,0.6,0.2c0.5,1.4,1.1,2.7,1.9,3.9c0.9,1.4,1.8,2.6,2.9,3.6c-2.8-1-5.4-2.6-7.4-4.7
		C123.3,47.7,121.7,45.2,120.6,42.3z M120.6,42.3L120.6,42.3L120.6,42.3z M154.2,49.8c-2.1,2.1-4.6,3.7-7.4,4.7
		c1.8-1.7,3.3-4.1,4.5-6.9c0.1-0.2,0.1-0.4,0.2-0.6c1.4-0.5,2.7-1.1,3.9-1.8c1.4-0.9,2.6-1.8,3.6-2.9
		C157.9,45.1,156.2,47.7,154.2,49.8z M154.2,49.8L154.2,49.8L154.2,49.8z M158.9,28.4c-1.7-1.8-4.1-3.3-6.9-4.5
		c-0.2-0.1-0.4-0.1-0.6-0.2c-0.5-1.4-1.1-2.7-1.9-3.9c-0.8-1.4-1.8-2.6-2.8-3.6c2.8,1,5.4,2.6,7.4,4.7
		C156.2,23.1,157.9,25.6,158.9,28.4z M158.9,28.4L158.9,28.4L158.9,28.4z M132.8,16.2c-1.8,1.7-3.4,4.1-4.5,6.9
		c-0.1,0.2-0.1,0.4-0.2,0.6c-1.4,0.5-2.7,1.1-3.9,1.9c-1.4,0.9-2.6,1.8-3.6,2.9c1-2.8,2.6-5.4,4.7-7.4
		C127.4,18.9,130,17.3,132.8,16.2z"/>
	<path class="st5" d="M139.8,58.2c-12.6,0-22.9-10.3-22.9-22.9c0-12.6,10.3-22.9,22.9-22.9h0c12.6,0,22.9,10.3,22.9,22.9
		C162.6,48,152.4,58.2,139.8,58.2z M139.7,13.9c-11.8,0-21.5,9.7-21.5,21.5c0,11.8,9.7,21.5,21.5,21.5c11.8,0,21.5-9.6,21.5-21.5
		C161.3,23.5,151.6,13.9,139.7,13.9L139.7,13.9z"/>
	<path class="st6" d="M117.6,35.4"/>
	<path class="st5" d="M143,22.5l-0.9-0.1c-0.8-0.1-1.5-0.1-2.3-0.1c-0.8,0-1.6,0-2.3,0.1l-0.8,0.1l0.1-0.8c0.1-0.5,0.2-0.9,0.2-1.3
		c0.4-2,0.9-3.5,1.3-4.5c0.2-0.5,0.5-0.9,0.8-1.2c0.1-0.1,0.2-0.1,0.2-0.2l0.2-0.2h0.3c0.3,0,0.6,0.2,0.9,0.6c0.5,0.6,1,1.9,1.2,2.7
		c0.3,1,0.6,2.3,0.9,4.1L143,22.5z M139.8,16.1c-0.1,0.1-0.1,0.2-0.2,0.4l0,0c-0.4,0.9-0.9,2.3-1.2,4.2c0,0.1-0.1,0.3-0.1,0.4
		c1,0,2,0,3,0c-0.3-1.3-0.5-2.3-0.7-3C140.3,17.1,140,16.4,139.8,16.1z M139.4,15.6L139.4,15.6L139.4,15.6z"/>
	<path class="st5" d="M143.7,30.9l-0.7,0c-1,0-2.1,0-3.2,0c-1.1,0-2.2,0-3.2,0l-0.7,0l0-0.7c0.1-2.4,0.3-4.7,0.6-6.7l0.1-0.5l0.6,0
		c0.9-0.1,1.7-0.1,2.7-0.1c0.9,0,1.8,0,2.7,0.1l0.6,0l0.1,0.6c0.3,2.1,0.5,4.4,0.6,6.7L143.7,30.9z M137.8,24.3
		c-0.2,1.6-0.4,3.4-0.5,5.3c0.8,0,1.6,0,2.5,0c0.8,0,1.7,0,2.5,0c-0.1-1.8-0.3-3.6-0.5-5.3c-0.7,0-1.3-0.1-2-0.1
		C139.1,24.2,138.4,24.2,137.8,24.3z"/>
	<path class="st6" d="M139.8,23.5"/>
	<path class="st5" d="M152.6,38.6l0.1-0.9c0.1-0.8,0.1-1.5,0.1-2.3c0-0.8,0-1.6-0.1-2.3l-0.1-0.8l0.8,0.1c0.5,0.1,0.9,0.2,1.3,0.2
		c2,0.4,3.5,0.9,4.5,1.3c0.5,0.2,0.9,0.5,1.2,0.8c0.1,0.1,0.1,0.2,0.2,0.2l0.2,0.2v0.3c0,0.3-0.1,0.5-0.5,0.8
		c-0.5,0.4-1.5,0.9-2.7,1.3c-1.1,0.3-2.3,0.6-4.1,0.9L152.6,38.6z M154.1,33.9c0,0.5,0,1,0,1.5c0,0.5,0,1,0,1.5
		c1.2-0.2,2.2-0.5,3-0.7c0.9-0.3,1.6-0.6,1.9-0.8c-0.1-0.1-0.2-0.1-0.4-0.2c-0.9-0.4-2.4-0.9-4.2-1.3
		C154.4,33.9,154.2,33.9,154.1,33.9z"/>
	<path class="st6" d="M160.1,35.3"/>
	<path class="st5" d="M144.2,39.3l0-0.7c0-1.1,0.1-2.1,0.1-3.2c0-1.1,0-2.2-0.1-3.2l0-0.7l0.7,0c2.5,0.1,4.7,0.3,6.7,0.6l0.5,0.1
		l0.1,0.5c0.1,0.8,0.1,1.6,0.1,2.7c0,0.9-0.1,1.9-0.1,2.7l0,0.6l-0.6,0.1c-2.1,0.3-4.3,0.5-6.7,0.6L144.2,39.3z M145.6,32.9
		c0,0.8,0,1.6,0,2.5c0,0.8,0,1.6,0,2.5c1.8-0.1,3.6-0.3,5.3-0.5c0-0.6,0.1-1.3,0.1-2c0-0.8,0-1.4-0.1-2
		C149.3,33.1,147.5,33,145.6,32.9z"/>
	<path class="st6" d="M151.6,35.4"/>
	<path class="st5" d="M139.8,56.4c-0.4,0-0.7-0.4-0.9-0.6c-0.4-0.5-0.9-1.5-1.2-2.7c-0.3-1-0.6-2.4-0.9-4l-0.1-0.9l0.9,0.1
		c0.7,0.1,1.5,0.1,2.3,0.1c0.8,0,1.5,0,2.3-0.1l0.9-0.1l-0.2,1.1c-0.1,0.4-0.1,0.7-0.2,1l0,0c-0.4,2-0.9,3.5-1.3,4.5l0,0
		c-0.3,0.6-0.5,1-0.7,1.2c-0.2,0.2-0.3,0.2-0.4,0.3l-0.1,0.1L139.8,56.4z M138.2,49.7c0.2,1.2,0.5,2.2,0.7,3c0.3,0.9,0.6,1.6,0.8,2
		c0.1-0.1,0.1-0.2,0.2-0.4c0.4-0.9,0.9-2.3,1.2-4.2c0-0.1,0-0.3,0.1-0.4C140.3,49.8,139.2,49.8,138.2,49.7z"/>
	<path class="st6" d="M140.6,54.6"/>
	<path class="st5" d="M139.8,47.9c-0.9,0-1.8-0.1-2.7-0.1l-0.6,0l-0.1-0.5c-0.3-2-0.5-4.2-0.6-6.7l0-0.7l0.7,0c1,0,2.1,0.1,3.2,0.1
		c1.1,0,2.1,0,3.2-0.1l0.7,0l0,0.7c-0.1,2.4-0.3,4.6-0.6,6.7l-0.1,0.5l-0.5,0.1C141.7,47.9,140.8,47.9,139.8,47.9z M137.8,46.5
		c0.7,0,1.3,0.1,2,0.1c0.7,0,1.4,0,2-0.1c0.2-1.7,0.4-3.4,0.5-5.3c-1.7,0-3.4,0-5,0C137.4,43.1,137.5,44.9,137.8,46.5z"/>
	<path class="st6" d="M139.8,47.2"/>
	<path class="st5" d="M143.5,47.7l0.1-0.9c0.3-2.2,0.4-4.3,0.6-6.4l0-0.6l0.6,0c2.1-0.1,4.2-0.3,6.4-0.6l0.9-0.1L152,40
		c-0.3,2.1-0.7,4.1-1.4,5.9l-0.1,0.3l-0.3,0.1c-1.8,0.6-3.8,1.1-5.8,1.3L143.5,47.7z M145.5,41.1c-0.1,1.6-0.2,3.3-0.4,5
		c1.5-0.2,3-0.6,4.4-1c0.5-1.4,0.8-2.8,1.1-4.4C148.8,40.9,147.1,41,145.5,41.1z"/>
	<path class="st6" d="M144.8,40.4"/>
	<path class="st5" d="M139.8,39.4c-1.1,0-2.2,0-3.3,0l-0.6,0l0-0.6c0-1.1-0.1-2.2-0.1-3.3c0-1.1,0-2.2,0.1-3.3l0-0.6l0.6,0
		c1.1,0,2.2-0.1,3.3-0.1c1.1,0,2.2,0,3.3,0.1l0.6,0l0,0.6c0,1.1,0,2.2,0,3.3c0,1.1,0,2.2,0,3.3l0,0.7l-0.7,0
		C142,39.4,140.9,39.4,139.8,39.4z M137.1,38c0.9,0,1.8,0,2.6,0c0.9,0,1.8,0,2.6,0c0-0.9,0-1.7,0-2.6c0-0.9,0-1.8,0-2.6
		c-1.7,0-3.5,0-5.2,0c0,0.9,0,1.8,0,2.6C137.1,36.3,137.1,37.1,137.1,38z"/>
	<path class="st6" d="M143.1,35.4"/>
	<path class="st5" d="M127.4,31.7l0.1-0.9c0.3-2,0.7-3.9,1.4-5.9l0.1-0.3l0.3-0.1c1.8-0.6,3.8-1.1,5.8-1.4L136,23l-0.1,0.9
		c-0.2,1.9-0.4,4.1-0.5,6.5l0,0.6l-0.6,0c-2.5,0.1-4.6,0.3-6.4,0.6L127.4,31.7z M130.1,25.7c-0.5,1.5-0.8,2.9-1.1,4.4
		c1.5-0.2,3.2-0.3,5-0.4c0.1-1.8,0.2-3.5,0.4-5C132.9,24.9,131.4,25.2,130.1,25.7z"/>
	<path class="st6" d="M134.7,30.3"/>
	<path class="st5" d="M135.3,39.3l-0.7,0c-2.3-0.1-4.6-0.3-6.7-0.6l-0.6-0.1l0-0.6c-0.1-0.9-0.1-1.8-0.1-2.7c0-0.9,0-1.8,0.1-2.7
		l0-0.6l0.5-0.1c2-0.3,4.2-0.5,6.7-0.6l0.7,0l0,0.7c0,1,0,2.1,0,3.2c0,1.1,0,2.2,0,3.2L135.3,39.3z M128.7,37.4
		c1.7,0.2,3.4,0.4,5.3,0.5c0-0.8,0-1.7,0-2.5c0-0.9,0-1.7,0-2.5c-1.9,0.1-3.7,0.3-5.3,0.5c0,0.6-0.1,1.3-0.1,2
		C128.6,36.1,128.6,36.7,128.7,37.4z"/>
	<path class="st6" d="M134.6,32.1"/>
	<path class="st5" d="M126.9,38.6l-1.1-0.2c-0.4-0.1-0.7-0.1-1-0.2l0,0c-2-0.4-3.5-0.9-4.5-1.3c-0.6-0.3-0.9-0.6-1.1-0.7l0,0
		c-0.1-0.1-0.3-0.3-0.3-0.7c0-0.2,0.1-0.5,0.5-0.9c0.5-0.4,1.5-0.9,2.7-1.2c1-0.3,2.3-0.6,4-0.9l0.9-0.2l-0.1,0.9
		c-0.1,0.7-0.1,1.5-0.1,2.3c0,0.8,0,1.5,0.1,2.3L126.9,38.6z M125,36.8c0.1,0,0.3,0,0.4,0.1c0-0.5,0-1,0-1.5c0-0.5,0-1,0-1.5
		c-1.2,0.2-2.2,0.5-3,0.7c-0.9,0.3-1.6,0.6-2,0.8c0.1,0.1,0.2,0.1,0.4,0.2C121.7,36,123.2,36.4,125,36.8z M120,35.7
		C120,35.7,120,35.7,120,35.7C120,35.7,120,35.7,120,35.7z"/>
	<path class="st6" d="M126.2,37.7"/>
	<path class="st5" d="M128.4,46l-1.3-0.6c-0.9-0.4-1.6-0.8-2.2-1.2c-1.9-1.1-3.4-2.5-4.5-4c-0.4-0.6-0.8-1.3-1.1-2l-0.7-1.7l1.6,0.8
		c0.4,0.2,0.8,0.3,1.3,0.5l0,0c1.3,0.4,2.9,0.8,4.9,1.1L127,39l0.1,0.5c0.2,1.7,0.5,3.3,1,5L128.4,46z M121.3,39.2
		c0.1,0.1,0.1,0.2,0.2,0.2c0.9,1.3,2.3,2.6,4.1,3.6c0.2,0.1,0.5,0.3,0.8,0.4c-0.3-1.1-0.4-2.2-0.6-3.3
		C124,39.9,122.5,39.6,121.3,39.2z"/>
	<path class="st6" d="M121.3,38.4"/>
	<path class="st5" d="M136.1,47.7l-0.9-0.1c-2.1-0.3-4.1-0.7-5.9-1.4l-0.3-0.1l-0.1-0.3c-0.6-1.8-1.1-3.7-1.4-5.8l-0.1-0.9l0.9,0.1
		c2.3,0.3,4.4,0.5,6.5,0.6l0.6,0l0,0.6c0.1,2.5,0.3,4.6,0.6,6.4L136.1,47.7z M130.1,45c1.4,0.5,2.8,0.8,4.4,1.1
		c-0.2-1.5-0.3-3.1-0.4-5c-1.6-0.1-3.3-0.2-5-0.4C129.3,42.2,129.6,43.7,130.1,45z"/>
	<path class="st6" d="M128.2,39.9"/>
	<path class="st5" d="M138.5,56.4l-1.5-0.6c-0.7-0.3-1.4-0.6-2-1.1c-2-1.4-3.8-3.8-5.2-6.7l-0.6-1.4l1.4,0.4c1.5,0.4,3.1,0.8,5,1
		l0.5,0.1l0.1,0.5c0.1,0.6,0.2,1.2,0.3,1.7c0.4,1.9,0.8,3.4,1.3,4.5L138.5,56.4z M131.7,48.8c1.1,2.1,2.5,3.8,4.1,4.8
		c0.1,0.1,0.2,0.1,0.2,0.2c-0.3-0.9-0.5-1.9-0.8-3.1c-0.1-0.4-0.2-0.8-0.2-1.3C133.8,49.3,132.7,49.1,131.7,48.8z"/>
	<path class="st6" d="M135.5,48.8"/>
	<path class="st5" d="M140.9,56.5l0.8-1.5c0.2-0.4,0.4-0.8,0.5-1.3l0,0c0.4-1.2,0.8-2.9,1.1-4.9l0.1-0.5l0.5-0.1
		c1.9-0.2,3.5-0.6,5-1l1.4-0.4l-0.6,1.4c-0.4,0.9-0.8,1.6-1.2,2.2c-1.1,1.9-2.5,3.4-4,4.5l0,0c-0.6,0.4-1.3,0.8-2.1,1.1L140.9,56.5z
		 M144.6,49.4c-0.3,1.8-0.7,3.2-1,4.4c0.1-0.1,0.2-0.1,0.3-0.2c1.3-1,2.6-2.3,3.6-4.1c0.1-0.2,0.3-0.5,0.4-0.7
		C146.8,49.1,145.8,49.3,144.6,49.4z"/>
	<path class="st6" d="M144.2,54.2"/>
	<path class="st5" d="M151.1,46l0.4-1.4c0.4-1.5,0.8-3.1,1-5l0.1-0.5l0.5-0.1c0.3,0,0.5-0.1,0.8-0.1c0.3-0.1,0.7-0.1,1-0.2
		c1.8-0.4,3.4-0.8,4.5-1.3l1.5-0.7l-0.6,1.5c-0.3,0.8-0.6,1.4-1.1,2.1c-1.4,2-3.7,3.8-6.7,5.1L151.1,46z M153.8,40.2
		c-0.2,1.2-0.4,2.2-0.6,3.2c2.1-1.1,3.8-2.5,4.8-4c0.1-0.1,0.1-0.2,0.2-0.3c-0.9,0.3-2,0.6-3.1,0.8c-0.3,0.1-0.7,0.1-1,0.2
		C154,40.2,153.9,40.2,153.8,40.2z"/>
	<path class="st6" d="M153.2,39.6"/>
	<path class="st5" d="M160.8,34.1l-1.5-0.6c-0.5-0.2-0.9-0.4-1.3-0.5c-1.3-0.4-2.9-0.8-4.9-1.1l-0.5-0.1l-0.1-0.5
		c-0.3-1.9-0.6-3.6-1-5l-0.4-1.4l1.4,0.6c0.8,0.3,1.5,0.7,2.2,1.2c1.9,1.1,3.4,2.5,4.5,4c0.5,0.7,0.8,1.3,1.1,2L160.8,34.1z
		 M153.8,30.6c1.7,0.3,3.2,0.6,4.4,1c-0.1-0.1-0.1-0.2-0.2-0.2c-1-1.4-2.3-2.6-4.1-3.6c-0.3-0.2-0.5-0.3-0.8-0.4
		C153.5,28.3,153.7,29.4,153.8,30.6z"/>
	<path class="st6" d="M158.2,32.3"/>
	<path class="st5" d="M152.1,31.7l-0.9-0.1c-1.8-0.2-3.9-0.4-6.4-0.6l-0.6,0l0-0.6c-0.1-2.1-0.3-4.2-0.6-6.5l-0.1-0.9l0.9,0.1
		c2,0.3,3.9,0.7,5.9,1.4l0.3,0.1l0.1,0.3c0.6,1.8,1.1,3.8,1.3,5.9L152.1,31.7z M145.5,29.7c1.9,0.1,3.5,0.2,5,0.4
		c-0.2-1.5-0.6-3-1-4.4c-1.5-0.5-2.9-0.8-4.4-1.1C145.2,26.4,145.4,28,145.5,29.7z"/>
	<path class="st6" d="M151.3,30.9"/>
	<path class="st5" d="M150.4,24l-1.4-0.4c-1.7-0.5-3.4-0.8-5-1l-0.5-0.1l-0.1-0.5c-0.1-0.6-0.2-1.2-0.3-1.8
		c-0.4-1.8-0.8-3.3-1.3-4.5l-0.7-1.6l1.6,0.7c0.8,0.3,1.5,0.7,2.1,1.1c2,1.4,3.8,3.7,5.1,6.7L150.4,24z M144.6,21.3
		c1.1,0.1,2.2,0.3,3.3,0.6c-1.1-2.1-2.5-3.8-4-4.8c-0.1-0.1-0.2-0.1-0.2-0.2c0.3,0.9,0.6,1.9,0.8,3.1
		C144.4,20.4,144.5,20.9,144.6,21.3z"/>
	<path class="st6" d="M144,21.9"/>
	<path class="st5" d="M129.1,24l0.6-1.3c0.3-0.8,0.7-1.5,1.2-2.2c1.1-1.9,2.5-3.5,4-4.5c0.6-0.4,1.2-0.8,2-1.1l1.6-0.6l-0.7,1.5
		c-0.2,0.4-0.3,0.8-0.5,1.3c-0.4,1.3-0.8,3-1.1,4.9l-0.1,0.5l-0.5,0.1c-1.7,0.2-3.4,0.5-5,1L129.1,24z M135.9,16.9
		c-0.1,0-0.1,0.1-0.2,0.1l0,0c-1.3,0.9-2.5,2.3-3.6,4.1c-0.2,0.3-0.3,0.5-0.4,0.8c1.1-0.2,2.2-0.4,3.3-0.6
		C135.2,19.6,135.6,18.1,135.9,16.9z"/>
	<path class="st5" d="M118.7,34.1l0.6-1.5c0.2-0.7,0.6-1.3,1.1-2c1.4-2,3.7-3.8,6.7-5.2l1.3-0.6l-0.4,1.4c-0.5,1.7-0.8,3.4-1,5
		l-0.1,0.5l-0.5,0.1c-0.5,0.1-1.1,0.2-1.7,0.3c-1.9,0.4-3.4,0.8-4.5,1.3L118.7,34.1z M126.3,27.3c-2.1,1.1-3.8,2.5-4.8,4.1
		c-0.1,0.1-0.1,0.2-0.2,0.2c0.9-0.3,1.9-0.5,3.1-0.8c0.5-0.1,0.9-0.2,1.3-0.2C125.9,29.5,126,28.4,126.3,27.3z"/>
	<path class="st6" d="M126.3,31.1"/>
	<path class="st5" d="M135.6,56.2l-3.1-1.1c-2.8-1-5.5-2.7-7.7-4.9c-2.1-2.1-3.8-4.8-4.9-7.7l-1.1-3.1l2.3,2.4
		c1.6,1.7,3.9,3.2,6.6,4.3c0.1,0,0.3,0.1,0.4,0.1c0.1,0,0.1,0,0.2,0.1l0.3,0.1l0.1,0.3c0.6,1.4,1.2,2.7,1.8,3.7
		c0.8,1.4,1.7,2.5,2.7,3.5L135.6,56.2z M122.5,44.9c0.9,1.6,2,3.1,3.3,4.4c1.3,1.3,2.8,2.4,4.4,3.3c-0.3-0.4-0.6-0.9-0.9-1.4
		c-0.6-1-1.2-2.3-1.8-3.7c-0.1,0-0.2-0.1-0.2-0.1l-0.1,0C125.5,46.7,123.9,45.9,122.5,44.9z"/>
	<path class="st6" d="M120.6,42.3"/>
	<path class="st5" d="M143.9,56.3l2.4-2.3c1.7-1.6,3.2-3.9,4.3-6.6c0-0.1,0.1-0.2,0.1-0.3c0-0.1,0.1-0.2,0.1-0.2l0.1-0.3l0.3-0.1
		c1.3-0.5,2.6-1.1,3.8-1.8c1.4-0.8,2.5-1.7,3.5-2.7l2.2-2.4l-1.1,3.1c-1,2.9-2.7,5.5-4.9,7.7c-2.1,2.1-4.8,3.8-7.7,4.9L143.9,56.3z
		 M152,47.6C152,47.6,152,47.6,152,47.6c0,0.1-0.1,0.2-0.1,0.3l0,0.1c-0.7,1.8-1.6,3.3-2.6,4.7c1.6-0.9,3.1-2,4.4-3.3l0,0
		c1.3-1.3,2.4-2.8,3.3-4.4c-0.4,0.3-0.9,0.6-1.4,0.9C154.5,46.5,153.2,47,152,47.6z"/>
	<path class="st6" d="M154.2,49.8"/>
	<path class="st5" d="M160.7,31.3l-2.3-2.4c-1.6-1.7-3.9-3.2-6.6-4.3c-0.1,0-0.2-0.1-0.3-0.1c-0.1,0-0.2-0.1-0.3-0.1l-0.3-0.1
		l-0.1-0.3c-0.5-1.4-1.1-2.6-1.8-3.7c-0.8-1.4-1.7-2.6-2.7-3.5l-2.4-2.3l3.1,1.2c2.9,1.1,5.6,2.8,7.7,4.9c2.2,2.2,3.8,4.8,4.9,7.7
		L160.7,31.3z M151.9,23.2C152,23.2,152,23.2,151.9,23.2c0.1,0,0.2,0.1,0.3,0.1c1.8,0.7,3.3,1.6,4.7,2.6c-0.9-1.6-2-3.1-3.3-4.4
		c-1.3-1.3-2.8-2.4-4.4-3.3c0.3,0.4,0.6,0.9,0.9,1.4C150.8,20.6,151.4,21.8,151.9,23.2z"/>
	<path class="st6" d="M158.9,28.4"/>
	<path class="st5" d="M118.8,31.3l1.1-3.1c1.1-2.9,2.7-5.5,4.9-7.7c2.2-2.2,4.8-3.8,7.7-4.9l3.1-1.1l-2.4,2.3
		c-1.7,1.6-3.2,3.9-4.3,6.6c0,0.1-0.1,0.2-0.1,0.2c0,0.1-0.1,0.3-0.2,0.4l-0.1,0.2l-0.2,0.1c-1.4,0.5-2.6,1.1-3.7,1.8
		c-1.4,0.9-2.6,1.8-3.5,2.7L118.8,31.3z M130.3,18.1c-1.6,0.9-3.1,2-4.4,3.3c-1.3,1.3-2.4,2.8-3.3,4.4c0.4-0.3,0.9-0.6,1.4-0.9
		c1.1-0.7,2.4-1.3,3.7-1.8c0,0,0,0,0,0c0-0.1,0.1-0.2,0.1-0.3C128.4,21.1,129.3,19.5,130.3,18.1z"/>
</g>
<path class="st0" d="M193.8,24.9h-2.4l3.4-9.1h2.4L193.8,24.9z M193.8,24.9L193.8,24.9L193.8,24.9z M204.6,24.9l3-8
	c0,0,0-0.1,0.1-0.1c0.1-0.3-0.1-0.5-0.4-0.7c-0.3-0.1-0.6-0.2-0.9-0.2h-7.6l-3.4,9.1h2.4l2.8-7.3h4.3l-2.8,7.3H204.6z M204.6,24.9
	L204.6,24.9L204.6,24.9z M218.1,17.6h-3.3l-2.8,7.3h-2.4l2.7-7.3h-3.5l0.6-1.7h9.2L218.1,17.6z M218.1,17.6L218.1,17.6L218.1,17.6z
	 M226,24.9l0.6-1.7h-6.8l0.8-2h4.3l0.6-1.7h-4.3l0.7-1.9h6.7l0.7-1.7h-9.2l-3.4,9.1H226z M226,24.9L226,24.9L226,24.9z M235.1,24.9
	h-6.2c-0.3,0-0.6-0.1-0.9-0.2c-0.3-0.2-0.3-0.5-0.3-0.8c0,0,0-0.1,0-0.1l2.7-6.9c0.1-0.3,0.4-0.6,0.9-0.8c0.4-0.2,0.8-0.3,1.2-0.3
	h5.9c0.3,0,0.6,0.1,0.9,0.2c0.3,0.2,0.5,0.4,0.4,0.7c0,0.1-0.2,0.5-0.5,1.5h-2.4l0.2-0.6h-4.4l-2.1,5.6h4.3l0.8-2h-1.7l0.6-1.7h4.2
	l-1.7,4.4c-0.1,0.3-0.3,0.6-0.8,0.8C235.8,24.8,235.5,24.9,235.1,24.9z M235.1,24.9L235.1,24.9L235.1,24.9z M247.6,20.3
	c0.3,0,0.7-0.1,1-0.2c0.5-0.2,0.7-0.5,0.8-0.8L250,18c0.2-0.6,0.4-1,0.4-1.2c0.1-0.3-0.1-0.5-0.3-0.7c-0.3-0.2-0.6-0.2-0.9-0.2h-7.6
	l-3.4,9.1h2.4l1.5-3.8h4.4l-1.5,3.8h2.4l1.3-3.5c0.1-0.1,0.1-0.1,0.1-0.2C248.8,20.7,248.5,20.4,247.6,20.3z M247.6,20.3L247.6,20.3
	L247.6,20.3z M246.9,19.5h-4.3l0.8-1.9h4.3L246.9,19.5z M246.9,19.5L246.9,19.5L246.9,19.5z M258,24.9h-2.4l1.4-3.8h-4.3l-1.5,3.8
	h-2.4l3-8c0.2-0.3,0.5-0.6,0.9-0.9c0.3-0.1,0.8-0.2,1.1-0.2h6c0.3,0,0.6,0.1,0.9,0.2c0.3,0.2,0.5,0.4,0.4,0.7c0,0.1,0,0.1-0.1,0.2
	L258,24.9z M258,24.9L258,24.9L258,24.9z M257.6,19.5l0.7-1.9H254l-0.7,1.9H257.6z M257.6,19.5L257.6,19.5L257.6,19.5z M267,24.9
	c0.4,0,0.8-0.1,1.2-0.3c0.5-0.2,0.8-0.5,0.9-0.8l2.6-7c0,0,0-0.1,0.1-0.1c0.1-0.3-0.1-0.5-0.4-0.7c-0.3-0.1-0.6-0.2-0.9-0.2h-7.6
	l-3.4,9.1H267z M267,24.9L267,24.9L267,24.9z M266.9,23.2h-4.3l2.2-5.6h4.3L266.9,23.2z M266.9,23.2L266.9,23.2L266.9,23.2z
	 M277.9,24.9h-6.2c-0.3,0-0.6-0.1-0.9-0.2c-0.3-0.2-0.4-0.5-0.3-0.8c0,0,0-0.1,0-0.1l2.7-6.9c0.1-0.3,0.4-0.6,0.9-0.8
	c0.3-0.2,0.8-0.3,1.2-0.3h5.9c0.3,0,0.6,0.1,0.9,0.2c0.3,0.2,0.4,0.4,0.3,0.7c0,0.1,0,0.1-0.1,0.1l-2.6,6.9
	c-0.1,0.3-0.3,0.6-0.8,0.8C278.6,24.8,278.2,24.9,277.9,24.9z M277.9,24.9L277.9,24.9L277.9,24.9z M277.6,23.2l2.2-5.6h-4.3
	l-2.2,5.6H277.6z M277.6,23.2L277.6,23.2L277.6,23.2z M290.4,20.3c0.3,0,0.7-0.1,1-0.2c0.4-0.2,0.7-0.5,0.8-0.8l0.5-1.3
	c0.3-0.6,0.4-1,0.5-1.2c0.1-0.3-0.1-0.5-0.4-0.7c-0.2-0.2-0.5-0.2-0.9-0.2h-7.6l-3.4,9.1h2.4l1.5-3.8h4.3l-1.5,3.8h2.5l1.3-3.5
	c0.1-0.1,0.1-0.1,0.1-0.2C291.6,20.7,291.2,20.4,290.4,20.3z M290.4,20.3L290.4,20.3L290.4,20.3z M289.7,19.5h-4.3l0.7-1.9h4.3
	L289.7,19.5z M289.7,19.5L289.7,19.5L289.7,19.5z M300.7,24.9h-2.4l1.5-3.8h-4.4l-1.4,3.8h-2.4l3-8c0.1-0.3,0.4-0.6,0.9-0.9
	c0.4-0.1,0.8-0.2,1.2-0.2h6c0.3,0,0.6,0.1,0.9,0.2c0.3,0.2,0.5,0.4,0.3,0.7c0,0.1,0,0.1,0,0.2L300.7,24.9z M300.7,24.9L300.7,24.9
	L300.7,24.9z M300.4,19.5l0.7-1.9h-4.3l-0.7,1.9H300.4z M300.4,19.5L300.4,19.5L300.4,19.5z M194.6,43.8h-7.6l3.4-9h7.6
	c0.3,0,0.6,0.1,0.9,0.2c0.3,0.2,0.4,0.4,0.3,0.7c0,0.1,0,0.1,0,0.1l-2.7,7c-0.1,0.3-0.4,0.6-0.9,0.8C195.4,43.7,195,43.8,194.6,43.8
	z M194.6,43.8L194.6,43.8L194.6,43.8z M194.4,42.1l2.2-5.6h-4.3l-2.2,5.6H194.4z M194.4,42.1L194.4,42.1L194.4,42.1z M206.9,43.8
	l0.6-1.7h-6.7l0.8-2h4.3l0.6-1.7h-4.3l0.7-1.9h6.8l0.6-1.7h-9.2l-3.4,9H206.9z M206.9,43.8L206.9,43.8L206.9,43.8z M222.8,43.8h-6.2
	c-0.3,0-0.6-0.1-0.9-0.2c-0.2-0.2-0.3-0.5-0.3-0.7c0-0.1,0.2-0.5,0.5-1.5h2.4l-0.2,0.6h4.3l0.8-2H218c-0.3,0-0.6-0.1-0.8-0.3
	c-0.3-0.2-0.4-0.4-0.3-0.7c0,0,0.1-0.1,0.1-0.1l1.2-3.1c0.1-0.3,0.4-0.6,0.9-0.8c0.3-0.2,0.8-0.2,1.2-0.2h5.9c0.3,0,0.6,0.1,0.9,0.2
	c0.3,0.2,0.4,0.4,0.3,0.7c0,0.1-0.2,0.5-0.5,1.5h-2.4l0.2-0.6h-4.3l-0.7,1.9h5.2c0.4,0,0.8,0.1,1,0.4c0.2,0.2,0.2,0.3,0.2,0.5
	c0,0.1-0.1,0.1-0.1,0.1l-1.3,3.4c-0.1,0.3-0.3,0.5-0.8,0.8C223.5,43.7,223.1,43.8,222.8,43.8z M222.8,43.8L222.8,43.8L222.8,43.8z
	 M235,43.8l0.6-1.7h-6.7l0.8-2h4.3l0.6-1.7h-4.3l0.7-1.9h6.8l0.6-1.7h-9.2l-3.4,9H235z M235,43.8L235,43.8L235,43.8z M245.9,39.2
	c0.9,0.1,1.3,0.3,1.2,0.9c0,0.1,0,0.1-0.1,0.2l-1.3,3.5h-2.5l1.5-3.8h-4.3l-1.5,3.8h-2.4l3.4-9h7.6c0.3,0,0.6,0.1,0.9,0.2
	c0.3,0.2,0.5,0.4,0.4,0.7c-0.1,0.2-0.2,0.6-0.4,1.2l-0.5,1.3c-0.1,0.3-0.4,0.6-0.8,0.8C246.7,39.1,246.3,39.2,245.9,39.2z
	 M245.9,39.2L245.9,39.2L245.9,39.2z M245.3,38.4l0.7-1.9h-4.3l-0.7,1.9H245.3z M245.3,38.4L245.3,38.4L245.3,38.4z M259.6,35.3
	l-7.2,8.5h-1.3l-0.8-8.5l2.6-0.5l0.4,4.8l4.2-4.8L259.6,35.3z M259.6,35.3L259.6,35.3L259.6,35.3z M260.3,43.8l3.4-9h-2.4l-3.4,9
	H260.3z M260.3,43.8L260.3,43.8L260.3,43.8z M269.5,43.8h-6.2c-0.3,0-0.6-0.1-0.8-0.2c-0.3-0.2-0.4-0.4-0.3-0.7
	c0-0.1,0.1-0.1,0.1-0.2l2.6-6.9c0.2-0.3,0.5-0.6,0.9-0.8c0.3-0.2,0.8-0.2,1.1-0.2h6c0.3,0,0.6,0.1,0.9,0.2c0.3,0.2,0.5,0.4,0.4,0.7
	c0,0.1-0.2,0.5-0.5,1.5h-2.5l0.3-0.6H267l-2.1,5.6h4.3l0.2-0.6h2.4l-0.5,1.3c-0.1,0.3-0.4,0.6-0.9,0.8
	C270.2,43.8,269.8,43.8,269.5,43.8z M269.5,43.8L269.5,43.8L269.5,43.8z M275,43.8l3.4-9h-2.4l-3.4,9H275z M275,43.8L275,43.8
	L275,43.8z M284.2,43.8H278c-0.3,0-0.6-0.1-0.9-0.2c-0.3-0.2-0.3-0.4-0.3-0.7c0-0.1,0-0.1,0-0.2l2.7-6.9c0.1-0.3,0.4-0.6,0.9-0.8
	c0.4-0.2,0.8-0.2,1.2-0.2h5.9c0.3,0,0.6,0.1,0.9,0.2c0.3,0.2,0.5,0.4,0.3,0.7c0,0.1,0,0.1,0,0.1l-2.6,7c-0.1,0.3-0.4,0.5-0.9,0.8
	C285,43.7,284.6,43.8,284.2,43.8z M284.2,43.8L284.2,43.8L284.2,43.8z M283.9,42.1l2.2-5.6h-4.3l-2.1,5.6H283.9z M283.9,42.1
	L283.9,42.1L283.9,42.1z M294.9,43.8c0.3,0,0.7-0.1,1.1-0.3c0.4-0.2,0.7-0.5,0.8-0.8l1.3-3.4c0-0.1,0.1-0.1,0.1-0.1
	c0-0.2,0-0.3-0.2-0.5c-0.2-0.3-0.6-0.4-1-0.4h-5.2l0.8-1.9h4.3l-0.2,0.6h2.4c0.3-0.9,0.5-1.4,0.5-1.5c0.1-0.3-0.1-0.5-0.4-0.7
	c-0.2-0.1-0.5-0.2-0.9-0.2h-5.9c-0.4,0-0.8,0.1-1.2,0.2c-0.5,0.2-0.8,0.5-0.9,0.8L289,39c-0.1,0.1-0.1,0.1-0.1,0.1
	c-0.1,0.3,0.1,0.5,0.3,0.7c0.2,0.2,0.5,0.3,0.8,0.3h5.2l-0.8,2h-4.3l0.2-0.6h-2.4c-0.3,0.9-0.5,1.4-0.5,1.5c-0.1,0.2,0,0.5,0.3,0.7
	c0.2,0.2,0.5,0.2,0.8,0.2H294.9z M294.9,43.8L294.9,43.8L294.9,43.8z M191.9,62.7h-9.2l3.4-9h2.5l-2.8,7.3h6.7L191.9,62.7z
	 M191.9,62.7L191.9,62.7L191.9,62.7z M203,62.7h-6.2c-0.3,0-0.6-0.1-0.8-0.2c-0.3-0.2-0.4-0.4-0.3-0.7c0-0.1,0-0.1,0.1-0.1l2.6-6.9
	c0.1-0.3,0.4-0.6,0.9-0.8c0.4-0.2,0.8-0.2,1.2-0.2h6c0.3,0,0.6,0.1,0.9,0.2c0.3,0.2,0.5,0.5,0.4,0.8c0,0-0.1,0.1-0.1,0.1l-2.6,6.9
	c-0.1,0.3-0.4,0.6-0.9,0.8C203.7,62.7,203.3,62.7,203,62.7z M203,62.7L203,62.7L203,62.7z M202.7,61l2.2-5.6h-4.3l-2.1,5.6H202.7z
	 M202.7,61L202.7,61L202.7,61z M215.6,62.7h-6.2c-0.3,0-0.6-0.1-0.9-0.2c-0.2-0.2-0.3-0.4-0.3-0.7c0-0.1,0-0.1,0.1-0.1l2.6-6.9
	c0.1-0.3,0.4-0.6,0.9-0.8c0.4-0.2,0.8-0.2,1.2-0.2h5.9c0.3,0,0.6,0.1,0.9,0.2c0.3,0.2,0.5,0.5,0.4,0.8c-0.1,0-0.2,0.5-0.6,1.4h-2.4
	l0.2-0.6h-4.3L211,61h4.3l0.8-2h-1.7l0.7-1.7h4.1l-1.6,4.4c-0.1,0.3-0.4,0.6-0.9,0.8C216.3,62.7,216,62.7,215.6,62.7z M215.6,62.7
	L215.6,62.7L215.6,62.7z M223,62.7h-2.4l3.4-9h2.4L223,62.7z M223,62.7L223,62.7L223,62.7z M234.2,62.7h-6.2c-0.3,0-0.5-0.1-0.8-0.2
	c-0.3-0.2-0.3-0.4-0.3-0.7c0-0.1,0.2-0.5,0.5-1.4h2.4l-0.2,0.6h4.3l0.8-2h-5.3c-0.3,0-0.6-0.1-0.8-0.3c-0.3-0.2-0.4-0.4-0.3-0.6
	c0-0.1,0-0.1,0.1-0.1l1.2-3.2c0.1-0.3,0.4-0.6,0.9-0.8c0.3-0.2,0.8-0.2,1.2-0.2h5.9c0.3,0,0.6,0.1,0.9,0.2c0.3,0.2,0.5,0.5,0.4,0.8
	c0,0-0.2,0.5-0.5,1.4h-2.4l0.2-0.6h-4.3l-0.7,1.9h5.2c0.4,0,0.8,0.2,1,0.4c0.2,0.2,0.2,0.3,0.2,0.5c0,0.1-0.1,0.1-0.1,0.1l-1.3,3.4
	c-0.1,0.3-0.4,0.6-0.8,0.8C234.9,62.7,234.5,62.7,234.2,62.7z M234.2,62.7L234.2,62.7L234.2,62.7z M251.1,55.4h-3.3l-2.8,7.3h-2.4
	l2.8-7.3h-3.5l0.6-1.7h9.2L251.1,55.4z M251.1,55.4L251.1,55.4L251.1,55.4z M254.2,62.7l3.4-9h-2.4l-3.5,9H254.2z M254.2,62.7
	L254.2,62.7L254.2,62.7z M265.4,62.7h-6.2c-0.3,0-0.6-0.1-0.8-0.2c-0.3-0.2-0.4-0.4-0.3-0.7c0.1-0.1,0.1-0.1,0.1-0.1l2.7-6.9
	c0.1-0.3,0.4-0.6,0.9-0.8c0.3-0.2,0.8-0.2,1.1-0.2h6c0.3,0,0.6,0.1,0.9,0.2c0.3,0.2,0.5,0.5,0.4,0.8c0,0-0.2,0.5-0.5,1.4H267
	l0.2-0.6h-4.4l-2.1,5.6h4.3l0.2-0.6h2.4l-0.5,1.3c-0.1,0.3-0.4,0.6-0.9,0.8C266,62.7,265.6,62.7,265.4,62.7z M265.4,62.7L265.4,62.7
	L265.4,62.7z M278,62.7h-6.2c-0.3,0-0.6-0.1-0.8-0.2c-0.3-0.2-0.4-0.4-0.3-0.7c0-0.1,0-0.1,0.1-0.1l2.6-6.9c0.1-0.3,0.5-0.6,0.9-0.8
	c0.4-0.2,0.8-0.2,1.2-0.2h6c0.3,0,0.6,0.1,0.9,0.2c0.3,0.2,0.5,0.5,0.4,0.8c0,0-0.1,0.1-0.1,0.1l-2.6,6.9c-0.1,0.3-0.4,0.6-0.8,0.8
	C278.7,62.7,278.3,62.7,278,62.7z M278,62.7L278,62.7L278,62.7z M277.7,61l2.1-5.6h-4.3l-2.1,5.6H277.7z M277.7,61L277.7,61
	L277.7,61z M290.5,62.7h-6.2c-0.3,0-0.6-0.1-0.8-0.2c-0.3-0.2-0.4-0.4-0.3-0.7c0-0.1,0.2-0.5,0.5-1.4h2.5l-0.3,0.6h4.4l0.8-2h-5.2
	c-0.3,0-0.6-0.1-0.9-0.3c-0.3-0.2-0.4-0.4-0.3-0.6c0.1-0.1,0.1-0.1,0.1-0.1l1.2-3.2c0.1-0.3,0.4-0.6,0.9-0.8
	c0.4-0.2,0.8-0.2,1.2-0.2h5.9c0.3,0,0.6,0.1,0.9,0.2c0.3,0.2,0.5,0.5,0.4,0.8c0,0-0.2,0.5-0.5,1.4h-2.5l0.2-0.6h-4.3l-0.7,1.9h5.2
	c0.5,0,0.8,0.2,1,0.4c0.1,0.2,0.2,0.3,0.1,0.5c0,0.1,0,0.1-0.1,0.1l-1.2,3.4c-0.1,0.3-0.4,0.6-0.9,0.8
	C291.3,62.7,290.9,62.7,290.5,62.7z"/>
</svg>
